<svg width="43" height="38" viewBox="0 0 43 38" fill="none" xmlns="http://www.w3.org/2000/svg">
<g clip-path="url(#clip0_841_24)">
<path d="M25.492 21.9695L15.954 14.9755C15.209 14.43 14.3276 14.1014 13.4073 14.0262C12.487 13.951 11.5639 14.1321 10.7402 14.5494C9.91653 14.9667 9.22451 15.6039 8.74085 16.3905C8.25718 17.177 8.00076 18.0821 8.00001 19.0055V33.0005C7.99857 33.9247 8.25365 34.8312 8.73686 35.6191C9.22006 36.407 9.91243 37.0453 10.7369 37.4631C11.5614 37.8808 12.4856 38.0615 13.4067 37.9852C14.3278 37.9088 15.2096 37.5783 15.954 37.0305L25.492 30.0365C26.1249 29.572 26.6395 28.9651 26.9942 28.2648C27.349 27.5645 27.5338 26.7905 27.5338 26.0055C27.5338 25.2205 27.349 24.4465 26.9942 23.7462C26.6395 23.0459 26.1249 22.4389 25.492 21.9745V21.9695Z" fill="#374957"/>
</g>
<path d="M1.30078 2.8418H3.1582V10.3711H8.48438V12H1.30078V2.8418ZM10.0547 2.8418H11.9238V12H10.0547V2.8418ZM13.0723 2.8418H15.1289L18.0059 9.82617L20.8828 2.8418H22.9395L18.9258 12H17.0859L13.0723 2.8418ZM24.3164 2.8418H32.1152V4.4707H26.1738V6.29883H31.4355V7.82812H26.1738V10.377H32.2383V12H24.3164V2.8418Z" fill="black"/>
<defs>
<clipPath id="clip0_841_24">
<rect width="24" height="24" fill="white" transform="translate(5 14)"/>
</clipPath>
</defs>
</svg>
