<svg width="36" height="23" viewBox="0 0 36 23" fill="none" xmlns="http://www.w3.org/2000/svg">
<path d="M9 13C4.03172 13.0055 0.00553125 17.0317 0 22C0 22.5523 0.447703 23 0.999984 23H17C17.5522 23 18 22.5523 18 22C17.9945 17.0317 13.9683 13.0055 9 13Z" fill="#FF0000"/>
<path d="M9 12C12.3137 12 15 9.31371 15 6C15 2.68629 12.3137 0 9 0C5.68629 0 3 2.68629 3 6C3 9.31371 5.68629 12 9 12Z" fill="#FF0000"/>
<path d="M27 13C22.0317 13.0055 18.0055 17.0317 18 22C18 22.5523 18.4477 23 19 23H35C35.5522 23 36 22.5523 36 22C35.9945 17.0317 31.9683 13.0055 27 13Z" fill="#FF0000"/>
<path d="M27 12C30.3137 12 33 9.31371 33 6C33 2.68629 30.3137 0 27 0C23.6863 0 21 2.68629 21 6C21 9.31371 23.6863 12 27 12Z" fill="#FF0000"/>
</svg>
