<svg width="47" height="38" viewBox="0 0 47 38" fill="none" xmlns="http://www.w3.org/2000/svg">
<g clip-path="url(#clip0_841_24)">
<path d="M27.8633 21.9695L17.4381 14.9755C16.6238 14.43 15.6603 14.1014 14.6544 14.0262C13.6485 13.951 12.6395 14.1321 11.7392 14.5494C10.839 14.9667 10.0826 15.6039 9.55391 16.3905C9.02525 17.177 8.74497 18.0821 8.74415 19.0055V33.0005C8.74258 33.9247 9.02139 34.8312 9.54954 35.6191C10.0777 36.407 10.8345 37.0453 11.7356 37.4631C12.6368 37.8808 13.647 38.0615 14.6538 37.9852C15.6605 37.9088 16.6244 37.5783 17.4381 37.0305L27.8633 30.0365C28.5551 29.572 29.1176 28.9651 29.5053 28.2648C29.893 27.5645 30.095 26.7905 30.095 26.0055C30.095 25.2205 29.893 24.4465 29.5053 23.7462C29.1176 23.0459 28.5551 22.4389 27.8633 21.9745V21.9695Z" fill="#FF0000"/>
</g>
<path d="M1.30078 2.8418H3.1582V10.3711H8.48438V12H1.30078V2.8418ZM10.0547 2.8418H11.9238V12H10.0547V2.8418ZM13.0723 2.8418H15.1289L18.0059 9.82617L20.8828 2.8418H22.9395L18.9258 12H17.0859L13.0723 2.8418ZM24.3164 2.8418H32.1152V4.4707H26.1738V6.29883H31.4355V7.82812H26.1738V10.377H32.2383V12H24.3164V2.8418Z" fill="#FF0000"/>
<defs>
<clipPath id="clip0_841_24">
<rect width="26.2326" height="24" fill="white" transform="translate(5.46509 14)"/>
</clipPath>
</defs>
</svg>
