<svg width="24" height="24" viewBox="0 0 24 24" fill="none" xmlns="http://www.w3.org/2000/svg">
<g clip-path="url(#clip0_815_6)">
<path d="M7.42401 21C7.81167 21.8914 8.45124 22.6502 9.26416 23.1831C10.0771 23.716 11.028 23.9999 12 23.9999C12.9721 23.9999 13.9229 23.716 14.7359 23.1831C15.5488 22.6502 16.1884 21.8914 16.576 21H7.42401Z" fill="#374957"/>
<path d="M22.3921 12.5489L20.6561 6.82593C20.1001 4.82428 18.8914 3.0657 17.2219 1.82943C15.5524 0.593158 13.5177 -0.0499525 11.441 0.00220786C9.3642 0.0543683 7.36438 0.79881 5.75902 2.11734C4.15367 3.43586 3.03479 5.25289 2.58005 7.27993L1.23205 12.8169C1.05289 13.5527 1.04318 14.3195 1.20366 15.0596C1.36415 15.7996 1.69063 16.4936 2.15847 17.089C2.62632 17.6845 3.2233 18.1659 3.90437 18.4969C4.58544 18.8279 5.3328 18.9999 6.09005 18.9999H17.6071C18.3878 19 19.1577 18.8172 19.8551 18.4662C20.5525 18.1152 21.158 17.6057 21.6231 16.9787C22.0882 16.3516 22.4 15.6243 22.5335 14.8551C22.6671 14.0859 22.6186 13.2961 22.3921 12.5489V12.5489Z" fill="#374957"/>
</g>
<circle cx="4.5" cy="3.5" r="3.5" fill="#FD0606"/>
<defs>
<clipPath id="clip0_815_6">
<rect width="24" height="24" fill="white"/>
</clipPath>
</defs>
</svg>
