<svg width="35" height="23" viewBox="0 0 35 23" fill="none" xmlns="http://www.w3.org/2000/svg">
<path d="M9 13C4.03172 13.0055 0.00553125 17.0317 0 22C0 22.5523 0.447703 23 0.999984 23H17C17.5522 23 18 22.5523 18 22C17.9945 17.0317 13.9683 13.0055 9 13Z" fill="#374957"/>
<path d="M9 12C12.3137 12 15 9.31371 15 6C15 2.68629 12.3137 0 9 0C5.68629 0 3 2.68629 3 6C3 9.31371 5.68629 12 9 12Z" fill="#374957"/>
<path d="M26 13C21.0317 13.0055 17.0055 17.0317 17 22C17 22.5523 17.4477 23 18 23H34C34.5522 23 35 22.5523 35 22C34.9945 17.0317 30.9683 13.0055 26 13Z" fill="#374957"/>
<path d="M26 12C29.3137 12 32 9.31371 32 6C32 2.68629 29.3137 0 26 0C22.6863 0 20 2.68629 20 6C20 9.31371 22.6863 12 26 12Z" fill="#374957"/>
</svg>
