<svg width="24" height="24" viewBox="0 0 24 24" fill="none" xmlns="http://www.w3.org/2000/svg">
<g clip-path="url(#clip0_822_10)">
<path d="M23.0001 3.99999C23.0001 4.53043 22.7893 5.03913 22.4143 5.41421C22.0392 5.78928 21.5305 5.99999 21.0001 5.99999H3.00006C2.46963 5.99999 1.96092 5.78928 1.58585 5.41421C1.21077 5.03913 1.00006 4.53043 1.00006 3.99999C1.00006 3.46956 1.21077 2.96085 1.58585 2.58578C1.96092 2.21071 2.46963 1.99999 3.00006 1.99999H4.18406C4.39014 1.41708 4.77129 0.912084 5.27536 0.55408C5.77943 0.196076 6.3818 0.00255534 7.00006 -7.62939e-06L17.0001 -7.62939e-06C17.6183 0.00255534 18.2207 0.196076 18.7248 0.55408C19.2288 0.912084 19.61 1.41708 19.8161 1.99999H21.0001C21.5305 1.99999 22.0392 2.21071 22.4143 2.58578C22.7893 2.96085 23.0001 3.46956 23.0001 3.99999ZM10.0001 16C10.1051 19.954 13.8951 19.953 14.0001 16C13.9001 12.046 10.1051 12.047 10.0001 16ZM8.08106 15C8.97306 9.71299 15.0291 9.71599 15.9191 15H21.0071L21.7421 9.12399C21.7596 8.98332 21.7471 8.84052 21.7053 8.70506C21.6635 8.5696 21.5933 8.44457 21.4995 8.33828C21.4057 8.23199 21.2904 8.14686 21.1612 8.08854C21.032 8.03022 20.8918 8.00003 20.7501 7.99999H3.25006C3.10829 8.00003 2.96816 8.03022 2.83894 8.08854C2.70973 8.14686 2.59439 8.23199 2.50058 8.33828C2.40677 8.44457 2.33664 8.5696 2.29483 8.70506C2.25301 8.84052 2.24048 8.98332 2.25806 9.12399L2.99206 15H8.08106ZM15.9191 17C15.0271 22.287 8.97206 22.284 8.08106 17H3.24206L3.57006 19.62C3.72282 20.8285 4.31083 21.94 5.224 22.7462C6.13718 23.5524 7.31291 23.9982 8.53106 24H15.4691C16.6872 23.9982 17.8629 23.5524 18.7761 22.7462C19.6893 21.94 20.2773 20.8285 20.4301 19.62L20.7571 17H15.9191Z" fill="#374957"/>
</g>
<defs>
<clipPath id="clip0_822_10">
<rect width="24" height="24" fill="white"/>
</clipPath>
</defs>
</svg>
