<svg width="14" height="14" viewBox="0 0 14 14" fill="none" xmlns="http://www.w3.org/2000/svg">
<path d="M13 0.999818C12.8124 0.812347 12.5581 0.707031 12.293 0.707031C12.0278 0.707031 11.7735 0.812347 11.586 0.999818L6.99997 5.58582L2.41397 0.999818C2.22644 0.812347 1.97213 0.707031 1.70697 0.707031C1.44181 0.707031 1.1875 0.812347 0.99997 0.999818C0.812499 1.18735 0.707184 1.44165 0.707184 1.70682C0.707184 1.97198 0.812499 2.22629 0.99997 2.41382L5.58597 6.99982L0.99997 11.5858C0.812499 11.7733 0.707184 12.0277 0.707184 12.2928C0.707184 12.558 0.812499 12.8123 0.99997 12.9998C1.1875 13.1873 1.44181 13.2926 1.70697 13.2926C1.97213 13.2926 2.22644 13.1873 2.41397 12.9998L6.99997 8.41382L11.586 12.9998C11.7735 13.1873 12.0278 13.2926 12.293 13.2926C12.5581 13.2926 12.8124 13.1873 13 12.9998C13.1874 12.8123 13.2928 12.558 13.2928 12.2928C13.2928 12.0277 13.1874 11.7733 13 11.5858L8.41397 6.99982L13 2.41382C13.1874 2.22629 13.2928 1.97198 13.2928 1.70682C13.2928 1.44165 13.1874 1.18735 13 0.999818Z" fill="#374957"/>
</svg>
